  <svg
    width="14px"
    height="24px"
    viewBox="0 0 14 24"
    fill="none"
    xmlns="http://www.w3.org/2000/svg"
  >
    <path
      fillRule="evenodd"
      clipRule="evenodd"
      d="M12.4999 12C12.4999 14.7614 10.2613 17 7.49987 17C4.73844 17 2.49987 14.7614 2.49987 12C2.49987 9.23858 4.73844 7 7.49987 7C10.2613 7 12.4999 9.23858 12.4999 12ZM13.4999 12C13.4999 15.3137 10.8136 18 7.49987 18C6.20399 18 5.00407 17.5892 4.02323 16.8907L1.70658 19.2071C1.31604 19.5976 0.682876 19.5976 0.292371 19.207C-0.0981348 18.8165 -0.0981039 18.1833 0.292439 17.7928L2.60905 15.4764C1.91063 14.4956 1.49987 13.2958 1.49987 12C1.49987 8.68629 4.18616 6 7.49987 6C10.8136 6 13.4999 8.68629 13.4999 12Z"
      stroke="#a6a6a6"
    />
  </svg>